<svg width="1247" height="1188" viewBox="0 0 1247 1188" fill="none" xmlns="http://www.w3.org/2000/svg">
<circle cx="577" cy="534" r="319" fill="#151565"/>
<mask id="mask0" mask-type="alpha" maskUnits="userSpaceOnUse" x="258" y="215" width="638" height="638">
<circle cx="577" cy="534" r="319" fill="#C4C4C4"/>
</mask>
<g mask="url(#mask0)">
<path d="M391.169 793.122C390.707 787.363 390.384 783.398 389.936 777.85C394.489 778.536 399.811 779.013 404.98 780.19C412.446 781.885 415.387 780.134 416.143 772.329C416.522 768.406 417.726 763.726 416.157 760.602C411.199 750.71 417.992 746.464 424.029 741.883C433.274 734.863 434.675 731.346 430.318 720.585C429.282 718.035 426.803 715.906 424.59 714.056C420.542 710.679 416.283 707.541 411.955 704.514C405.946 700.297 400.007 695.911 393.648 692.283C388.423 689.312 382.639 687.351 375.887 684.408C372.175 674.782 363.407 666.894 357.79 667.118C352.537 662.551 348.574 659.104 344.596 655.643C349.54 645.387 342.55 637.036 339.315 628.433C336.303 620.433 330.322 614.268 322.815 609.111C317.73 605.623 314.312 599.051 311.371 593.251C306.693 584.031 303.331 574.139 298.695 564.906C297.462 562.44 292.854 561.837 291.117 559.441C287.167 553.963 284.043 547.896 280.289 541.591C274.322 543.174 278.468 537.401 277.67 532.834C273.636 535.146 270.372 537.009 266.52 539.195C262.416 532.918 260.595 524.833 261.702 516.104C262.668 508.468 263.999 500.888 265.106 493.266C265.442 490.968 266.156 488.46 265.624 486.33C262.795 475.135 267.557 465.285 270.554 455.057C274.476 441.704 277.838 428.183 281.97 414.887C283.819 408.946 286.943 403.397 289.674 397.246C296.061 402.487 294.072 408.525 292.461 414.018C290.697 420.043 287.755 425.703 285.654 431.644C284.772 434.138 284.716 436.926 284.295 439.589C285.01 439.785 285.724 439.967 286.438 440.163C289.282 432.078 292.489 424.092 294.871 415.867C297.546 406.704 302.939 399.74 311.511 396.322C318.36 393.575 322.548 390.03 324.776 382.703C327.017 375.375 343.909 365.679 350.941 366.211C357.58 355.338 359.205 354.596 381.658 352.76C376.574 355.296 372.988 357.076 369.402 358.869C369.738 359.57 370.088 360.27 370.424 360.971C378.703 358.253 388.886 360.158 394.965 350.729C393.886 350.294 393.452 349.944 393.102 350.014C390.23 350.575 387.373 351.205 384.516 351.822C385.062 348.669 385.132 345.32 386.294 342.42C387.317 339.87 389.572 337.796 391.869 334.756C389.18 334.125 386.855 333.579 384.53 333.032C384.375 332.528 384.207 332.038 384.053 331.533C388.157 330.51 392.331 328.395 396.337 328.703C404.013 329.305 411.591 331.295 418.441 332.556C413.972 336.479 408.145 341.621 401.156 347.772C407.725 347.814 408.355 354.946 413.846 355.086C415.653 355.128 418.132 355.423 419.155 354.414C422.334 351.289 421.9 343.065 418.3 338.959C421.802 334.826 425.122 330.286 429.072 326.377C433.666 321.837 431.131 316.373 431.313 311.497C431.481 306.775 430.655 303.02 435.305 299.363C438.639 296.743 439.955 291.559 442.953 286.109C438.401 287.93 435.207 289.205 432.027 290.48C431.509 290.032 431.005 289.597 430.487 289.149C431.901 286.837 433.176 284.399 434.801 282.241C435.753 280.98 438.064 280.392 438.415 279.117C439.185 276.427 439.073 273.47 439.325 270.626C436.804 270.92 433.666 270.36 431.859 271.663C425.164 276.469 418.903 281.877 412.488 287.089C411.759 287.678 411.241 288.519 410.471 289.023C400.427 295.454 390.37 301.843 378.983 309.087C381.448 305.374 382.751 301.647 385.356 299.826C393.48 294.151 396.141 285.086 400.96 277.309C403.061 273.919 406.535 270.822 410.106 269.001C419.169 264.349 428.638 260.482 439.675 255.522C438.723 258.562 438.387 259.627 437.826 261.421C445.544 264.615 446.735 254.177 453.304 253.897C459.397 253.644 465.35 249.917 471.275 247.746C469.398 241.062 471.555 239.297 484.049 236.298C474.258 243.85 474.258 243.85 477.956 248.068C472.059 260.076 459.243 258.758 449.508 262.556C448.892 267.347 448.331 271.761 447.547 277.94C450.909 275.628 452.786 274.339 454.747 272.994C455.097 274.129 455.405 275.138 456.189 277.66C460.896 272.181 464.972 267.431 470.393 261.112C469.216 264.643 468.656 266.311 467.759 269.001C474.385 267.712 479.427 266.423 480.506 259.039C480.828 256.797 483.195 254.821 484.736 252.804C486.795 250.099 489.008 247.521 491.039 244.803C492.776 242.491 494.331 240.053 496.053 237.545C494.499 235.205 492.566 232.263 489.918 228.27C493.588 227.303 496.432 226.56 500.115 225.594C499.933 229.279 499.821 231.689 499.625 236.004C503.407 234.309 506.152 233.076 507.049 232.683C512.175 231.913 515.593 231.577 518.927 230.862C529.264 228.662 539.559 226.336 549.756 224.08C541.688 218 531.057 226.336 522.176 219.835C529.824 218.756 537.444 217.411 545.12 216.64C585.012 212.661 624.4 215.856 662.905 226.939C673.844 230.091 685.33 233.188 693.917 241.875C695.499 243.472 697.754 244.649 699.911 245.42C709.128 248.712 712.784 254.821 709.997 264.811C707.924 264.097 705.865 263.396 704.254 262.836C707.755 267.277 711.383 271.873 715.543 277.127C708.582 281.373 704.576 277.239 699.337 273.33C702.447 272.728 704.52 272.321 706.593 271.915C706.859 271.243 707.111 270.584 707.377 269.911C703.721 268.034 700.262 265.386 696.382 264.419C687.179 262.121 677.794 260.58 668.466 258.801C663.101 257.778 655.831 266.339 656.63 271.537C657.736 278.753 659.753 285.898 652.47 292.33C644.402 299.461 648.562 313.038 659.067 315.869C660.972 316.387 664.054 315.154 665.636 313.697C669.04 310.572 671.603 310.811 674.433 314.173C677.57 317.9 680.61 321.767 684.168 325.06C685.68 326.461 689.742 327.708 690.345 327.022C692.194 324.906 693.734 321.865 693.917 319.091C694.155 315.406 693.314 311.539 692.292 307.938C691.731 306.005 690.149 303.945 688.44 302.824C682.781 299.111 678.201 295.51 682.109 287.566C683.019 285.73 681.142 282.522 680.33 279.019C685.722 278.276 689.196 279.761 688.58 285.618C687.795 293.128 692.446 297.22 697.404 301.059C700.57 303.511 704.142 305.248 708.008 301.409C708.946 300.47 711.369 301.017 713.68 300.834C710.543 304.351 708.414 306.747 706.271 309.157C709.212 310.895 712.154 312.618 715.095 314.355C714.913 314.832 714.717 315.322 714.535 315.799C712.644 315.686 710.767 315.588 707.377 315.392C708.792 318.615 709.702 321.039 710.893 323.323C713.428 328.115 711.691 331.351 706.439 331.435C705.514 331.449 704.198 331.043 703.735 331.505C698.077 337.264 690.737 334.279 684.42 335.4C684.42 333.187 685.218 330.412 684.168 328.899C683.313 327.666 680.26 327.946 677.71 327.47C676.618 325.382 675.245 322.762 673.872 320.142C668.466 323.112 668.466 323.112 675.077 338.693C668.074 340.304 663.661 343.653 661.294 351.499C659.529 357.356 652.932 361.938 648.001 366.548C646.797 367.668 643.659 366.716 641.012 366.716C641.292 367.893 641.628 369.308 641.964 370.765C637.804 371.423 633.714 372.068 629.624 372.713C629.554 373.483 629.484 374.268 629.414 375.038C631.081 375.781 632.706 376.692 634.443 377.21C642.679 379.704 649.01 388.699 648.478 397.176C648.142 402.501 645.858 405.317 640.116 404.967C632.692 404.504 625.24 404.154 617.816 404.322C615.071 404.378 612.368 406.031 609.636 406.956C611.009 416.526 613.824 425.283 608.698 434.208C607.521 436.254 611.149 440.653 611.583 444.1C612.27 449.691 616.136 447.631 619.287 448.472C623.041 449.466 626.361 452.059 628.868 453.404C635.129 452.255 640.886 451.05 646.671 450.167C653.548 449.116 660.258 438.636 658.787 431.784C657.484 425.731 660.846 421.43 665.888 418.712C670.287 416.358 672.682 413.499 671.911 408.175C671.141 402.781 675.203 402.318 678.733 403.327C684.28 404.924 688.398 403.159 691.815 399.194C696.55 393.701 699.897 397.022 704.03 400.231C709.969 404.826 716.426 408.75 722.687 412.925C727.113 415.867 731.918 418.375 735.91 421.808C737.674 423.335 739.089 427.16 738.389 429.108C737.688 431.056 734.229 432.261 731.763 433.213C729.831 433.97 727.547 433.858 725.432 434.124C725.292 434.923 725.152 435.735 724.998 436.534C729.228 438.215 733.444 439.897 738.683 441.97C737.632 433.017 748.782 426.264 738.361 417.296C741.975 417.296 743.894 417.296 747.802 417.296C740.378 410.711 731.848 409.338 725.502 404.784C719.255 400.301 710.879 396.378 710.207 386.43C711.607 386.205 712.616 385.757 712.882 386.023C720.082 393.519 729.831 396.28 738.935 400.273C744.23 402.599 748.474 405.863 749.987 411.986C750.505 414.102 752.144 416.106 753.67 417.787C758.139 422.705 762.747 427.483 767.425 432.191C768.742 433.522 770.465 434.446 772.384 435.833C772.888 431.028 773.266 427.315 773.729 422.999C770.661 420.071 766.893 416.47 763.615 413.345C765.366 411.748 766.515 410.669 767.706 409.632C769.05 408.455 770.843 406.115 771.74 406.41C773.799 407.096 776.18 408.694 777.104 410.571C779.513 415.405 780.718 421.094 785.704 424.008C790.789 426.978 795.804 433.143 802.359 426.18C802.751 425.759 803.872 425.493 804.32 425.745C810.189 429.052 813.382 426.012 815.399 419.65C823.439 430.495 825.176 441.774 825.625 453.362C825.681 454.707 824.294 457.299 823.579 457.299C814.027 457.299 807.836 468.242 797.4 465.187C792.988 463.898 788.478 462.749 783.94 462.161C780.718 461.754 776.222 461.18 774.387 462.903C772.314 464.837 772.524 469.264 771.866 472.641C771.361 475.219 771.571 478.092 770.409 480.291C770.031 481.02 766.249 480.375 764.232 479.717C758.083 477.713 751.303 477.475 746.765 471.226C745.28 469.18 740.266 469.601 736.82 469.124C733.598 468.676 730.223 468.97 727.127 468.144C721.973 466.77 718.583 464.921 721.174 457.747C722.449 454.216 719.451 448.43 717.014 444.52C715.067 441.396 711.537 442.433 707.783 444.058C702.685 446.272 696.704 447.421 691.129 447.379C679.573 447.281 669.306 449.495 660.02 457.005C652.876 462.777 643.561 462.259 635.941 459.036C628.84 456.024 627.089 459.639 626.221 464.206C625.282 469.138 622.327 471.212 618.545 473.258C609.776 477.993 607.129 486.162 606.891 495.354C606.681 503.452 600.49 508.468 595.027 510.374C584.382 514.101 580.46 522.844 575.277 530.83C568.61 541.114 562.517 551.791 556.494 561.781C567.265 577.292 560.472 591.191 554.897 604.838C553.552 608.145 552.081 610.232 554.701 613.441C555.807 614.8 555.667 617.21 556.017 619.143C556.354 620.923 555.989 623.235 556.984 624.426C561.368 629.61 566.201 634.416 570.767 639.446C573.848 642.837 578.303 645.933 579.437 649.926C582.126 659.37 588.962 663.671 596.778 667.609C599.859 669.164 602.815 671.083 605.504 673.255C612.438 678.818 619.707 679.672 628.42 677.655C637.076 675.651 646.265 676.043 655.131 674.768C659.599 674.124 663.914 672.218 668.256 670.775C677.234 667.805 686.073 664.302 695.205 661.906C700.766 660.435 705.612 662.158 708.218 668.477C708.876 670.075 713.372 671.658 715.249 670.957C735.377 663.531 735.587 673.241 731.932 687.323C731.007 690.909 729.774 694.496 728.108 697.775C725.712 702.469 726.889 706.028 730.993 708.578C742.395 715.653 742.143 726.47 743.739 738.408C745.77 753.554 732.646 758.43 728.528 768.995C726.105 775.174 724.214 780.316 726.371 786.901C727.379 789.983 726.203 793.795 725.965 797.269C725.712 801.08 725.18 804.891 725.152 808.703C725.11 814.307 722.015 817.95 717.532 820.234C692.026 833.278 665.006 842.12 636.922 847.29C571.327 859.367 507.791 852.208 446.721 825.124C426.424 816.199 407.179 805.312 391.169 793.122ZM584.508 232.165C563.987 224.977 542.795 228.074 521.014 234.253C524.754 240.193 515.089 252.594 505.2 256.727C505.746 257.89 506.293 259.039 506.909 260.342C493.742 262.682 489.218 271.453 483.699 282.802C481.892 286.515 485.114 295.818 488.56 297.738C489.442 298.228 491.123 298.425 491.823 297.92C498.869 292.834 505.704 287.468 512.764 282.396C515.397 280.504 518.311 278.795 521.35 277.744C524.362 276.707 527.779 276.875 530.889 276.034C540.456 273.456 549.896 270.36 559.519 268.006C570.921 265.204 571.439 264.783 568.932 254.163C579.073 251.935 581.356 249.847 582.323 242.505C582.743 239.283 583.653 236.116 584.508 232.165ZM613.642 323.505C619.357 329.347 625.394 335.54 632.034 342.336C629.022 343.457 627.173 344.143 626.207 344.508C625.814 347.997 625.492 350.757 625.156 353.741C626.655 354.274 628.714 355.002 631.039 355.829C628.294 358.253 626.025 360.27 623.363 362.624C633.21 360.565 642.119 358.715 650.635 356.936C650.495 354.946 650.537 353.349 650.243 351.794C649.934 350.182 649.78 348.165 648.758 347.128C644.206 342.518 639.359 338.203 634.639 333.747C632.65 331.87 630.717 329.922 628.686 327.932C629.05 326.91 629.428 326.069 629.652 325.2C629.918 324.149 630.073 323.07 630.227 322.23C624.666 319.54 619.511 313.403 613.642 323.505ZM603.627 354.974C607.871 353.293 613.908 352.676 616.626 349.328C619.147 346.231 618.111 340.248 618.643 335.54C615.533 335.386 611.849 334.125 609.468 335.372C606.611 336.858 603.949 340.164 602.913 343.261C601.96 346.175 603.207 349.832 603.627 354.974ZM562.181 281.387C562.363 287.243 564.562 292.89 573.624 291.503C576.818 291.013 580.152 290.284 582.953 288.785C584.76 287.804 585.712 285.24 587.057 283.376C584.816 282.185 582.575 280.014 580.32 280C574.353 279.958 568.386 280.84 562.181 281.387ZM293.134 502.485C290.879 496.769 288.623 491.052 286.368 485.335C281.27 496.573 281.27 496.573 293.134 502.485ZM279.995 479.857C280.639 479.759 281.27 479.675 281.914 479.577C283.847 469.671 280.71 450.784 277.138 449.018C278.076 459.19 279.043 469.517 279.995 479.857ZM633.994 239.199C629.204 236.831 624.554 231.324 616.752 236.635C621.766 239.451 626.221 241.945 630.143 244.145C631.459 242.435 632.622 240.964 633.994 239.199Z" fill="white" stroke="white" stroke-width="2" stroke-miterlimit="10"/>
<path d="M877.687 554.27C891.848 520.362 896.177 488.262 882.352 455.742C881.539 455.714 880.727 455.686 879.914 455.644C879.914 459.245 879.914 462.86 879.914 467.091C866.594 454.355 861.929 446.326 864.044 441.773C866.692 444.771 869.549 448.022 873.163 452.113C875.488 448.596 876.413 447.223 877.267 445.92C879.2 446.481 881.203 447.055 884.523 448.022C907.662 537.568 896.037 623.107 847.656 703.392C847.012 703.224 846.354 703.07 845.709 702.902C851.55 685.514 857.097 668.013 863.302 650.751C871.272 628.614 882.562 607.611 886.274 584.044C888.207 571.784 889.467 559.412 891.036 547.082C890.378 546.942 889.733 546.816 889.075 546.675C886.232 552.378 883.374 558.081 880.503 563.825C879.256 563.363 878.29 563.307 878.052 562.873C872.659 553.023 867.448 543.061 861.957 533.253C856.845 524.103 851.284 515.22 846.242 506.029C841.255 496.949 836.689 487.646 831.128 476.871C834.153 477.838 837.711 477.852 839.028 479.589C846.27 489.089 855.178 497.552 858.358 509.798C859.1 512.656 862.154 514.884 863.974 517.504C869.073 524.832 873.555 532.342 874.116 541.687C874.34 545.274 876.062 548.763 877.687 554.27Z" fill="white" stroke="white" stroke-width="2" stroke-miterlimit="10"/>
<path d="M260.409 582.528C259.611 558.008 258.798 533.488 258 508.968C258.644 508.954 259.289 508.926 259.933 508.912C259.933 515.652 259.849 522.391 259.975 529.131C260.031 531.905 259.891 534.959 260.969 537.383C267.581 552.193 265.06 567.213 262.93 582.262C262.09 582.36 261.25 582.444 260.409 582.528Z" fill="white" stroke="white" stroke-width="2" stroke-miterlimit="10"/>
<path d="M814.397 743.762C819.916 737.177 825.435 730.591 830.953 724.006C831.458 724.398 831.948 724.776 832.452 725.169C827.059 731.894 821.667 738.62 816.288 745.345C815.658 744.813 815.027 744.294 814.397 743.762Z" fill="white" stroke="white" stroke-width="2" stroke-miterlimit="10"/>
</g>
<path d="M388 528.5C390.071 528.5 391.75 526.821 391.75 524.75C391.75 522.679 390.071 521 388 521C385.929 521 384.25 522.679 384.25 524.75C384.25 526.821 385.929 528.5 388 528.5Z" fill="#FF655B"/>
<path d="M388 506C382.73 506 377.673 508.079 373.928 511.787C370.183 515.495 368.053 520.53 368 525.8C368 539.5 385.625 554.75 386.375 555.4C386.828 555.787 387.404 556 388 556C388.596 556 389.172 555.787 389.625 555.4C390.5 554.75 408 539.5 408 525.8C407.947 520.53 405.817 515.495 402.072 511.787C398.327 508.079 393.27 506 388 506ZM388 533.5C386.269 533.5 384.578 532.987 383.139 532.025C381.7 531.064 380.578 529.697 379.916 528.098C379.254 526.5 379.08 524.74 379.418 523.043C379.756 521.346 380.589 519.786 381.813 518.563C383.036 517.339 384.596 516.506 386.293 516.168C387.99 515.83 389.75 516.004 391.348 516.666C392.947 517.328 394.314 518.45 395.275 519.889C396.237 521.328 396.75 523.019 396.75 524.75C396.75 527.071 395.828 529.296 394.187 530.937C392.546 532.578 390.321 533.5 388 533.5Z" fill="#FF655B"/>
<g filter="url(#filter0_f)">
<ellipse cx="387.5" cy="565" rx="16.5" ry="4" fill="#EAEAEA"/>
</g>
<path d="M637 738.5C639.071 738.5 640.75 736.821 640.75 734.75C640.75 732.679 639.071 731 637 731C634.929 731 633.25 732.679 633.25 734.75C633.25 736.821 634.929 738.5 637 738.5Z" fill="#FF655B"/>
<path d="M637 716C631.73 716 626.673 718.079 622.928 721.787C619.183 725.495 617.053 730.53 617 735.8C617 749.5 634.625 764.75 635.375 765.4C635.828 765.787 636.404 766 637 766C637.596 766 638.172 765.787 638.625 765.4C639.5 764.75 657 749.5 657 735.8C656.947 730.53 654.817 725.495 651.072 721.787C647.327 718.079 642.27 716 637 716ZM637 743.5C635.269 743.5 633.578 742.987 632.139 742.025C630.7 741.064 629.578 739.697 628.916 738.098C628.254 736.5 628.08 734.74 628.418 733.043C628.756 731.346 629.589 729.786 630.813 728.563C632.036 727.339 633.596 726.506 635.293 726.168C636.99 725.83 638.75 726.004 640.348 726.666C641.947 727.328 643.314 728.45 644.275 729.889C645.237 731.328 645.75 733.019 645.75 734.75C645.75 737.071 644.828 739.296 643.187 740.937C641.546 742.578 639.321 743.5 637 743.5Z" fill="#FF655B"/>
<g filter="url(#filter1_f)">
<ellipse cx="636.5" cy="775" rx="16.5" ry="4" fill="#EAEAEA"/>
</g>
<path d="M558 359.5C560.071 359.5 561.75 357.821 561.75 355.75C561.75 353.679 560.071 352 558 352C555.929 352 554.25 353.679 554.25 355.75C554.25 357.821 555.929 359.5 558 359.5Z" fill="#FF655B"/>
<path d="M558 337C552.73 337 547.673 339.079 543.928 342.787C540.183 346.495 538.053 351.53 538 356.8C538 370.5 555.625 385.75 556.375 386.4C556.828 386.787 557.404 387 558 387C558.596 387 559.172 386.787 559.625 386.4C560.5 385.75 578 370.5 578 356.8C577.947 351.53 575.817 346.495 572.072 342.787C568.327 339.079 563.27 337 558 337ZM558 364.5C556.269 364.5 554.578 363.987 553.139 363.025C551.7 362.064 550.578 360.697 549.916 359.098C549.254 357.5 549.08 355.74 549.418 354.043C549.756 352.346 550.589 350.786 551.813 349.563C553.036 348.339 554.596 347.506 556.293 347.168C557.99 346.83 559.75 347.004 561.348 347.666C562.947 348.328 564.314 349.45 565.275 350.889C566.237 352.328 566.75 354.019 566.75 355.75C566.75 358.071 565.828 360.296 564.187 361.937C562.546 363.578 560.321 364.5 558 364.5Z" fill="#FF655B"/>
<g filter="url(#filter2_f)">
<ellipse cx="557.5" cy="396" rx="16.5" ry="4" fill="#EAEAEA"/>
</g>
<circle cx="577.5" cy="533.5" r="343.5" stroke="white" stroke-width="5" stroke-dasharray="20 20"/>
<ellipse cx="577" cy="533.5" rx="380" ry="371.5" stroke="white" stroke-width="5" stroke-dasharray="20 20"/>
<ellipse cx="577.641" cy="533.5" rx="408.641" ry="399.5" stroke="white" stroke-width="5" stroke-dasharray="20 20"/>
<ellipse cx="577.281" cy="533.5" rx="437.281" ry="427.5" stroke="white" stroke-width="5" stroke-dasharray="20 20"/>
<ellipse cx="576.922" cy="533.5" rx="465.922" ry="455.5" stroke="white" stroke-width="5" stroke-dasharray="20 20"/>
<ellipse cx="577.563" cy="533.5" rx="494.563" ry="483.5" stroke="white" stroke-width="5" stroke-dasharray="20 20"/>
<ellipse cx="577.203" cy="533.5" rx="523.203" ry="511.5" stroke="white" stroke-width="5" stroke-dasharray="20 20"/>
<ellipse cx="577.844" cy="533.5" rx="551.844" ry="539.5" stroke="white" stroke-width="5" stroke-dasharray="20 20"/>
<ellipse cx="577.484" cy="533.5" rx="580.484" ry="567.5" stroke="white" stroke-width="5" stroke-dasharray="20 20"/>
<ellipse cx="577.125" cy="533.5" rx="609.125" ry="595.5" stroke="white" stroke-width="5" stroke-dasharray="20 20"/>
<ellipse cx="577.766" cy="533.5" rx="637.766" ry="623.5" stroke="white" stroke-width="5" stroke-dasharray="20 20"/>
<ellipse cx="577.406" cy="533.5" rx="666.406" ry="651.5" stroke="white" stroke-width="5" stroke-dasharray="20 20"/>
<defs>
<filter id="filter0_f" x="367" y="557" width="41" height="16" filterUnits="userSpaceOnUse" color-interpolation-filters="sRGB">
<feFlood flood-opacity="0" result="BackgroundImageFix"/>
<feBlend mode="normal" in="SourceGraphic" in2="BackgroundImageFix" result="shape"/>
<feGaussianBlur stdDeviation="2" result="effect1_foregroundBlur"/>
</filter>
<filter id="filter1_f" x="616" y="767" width="41" height="16" filterUnits="userSpaceOnUse" color-interpolation-filters="sRGB">
<feFlood flood-opacity="0" result="BackgroundImageFix"/>
<feBlend mode="normal" in="SourceGraphic" in2="BackgroundImageFix" result="shape"/>
<feGaussianBlur stdDeviation="2" result="effect1_foregroundBlur"/>
</filter>
<filter id="filter2_f" x="537" y="388" width="41" height="16" filterUnits="userSpaceOnUse" color-interpolation-filters="sRGB">
<feFlood flood-opacity="0" result="BackgroundImageFix"/>
<feBlend mode="normal" in="SourceGraphic" in2="BackgroundImageFix" result="shape"/>
<feGaussianBlur stdDeviation="2" result="effect1_foregroundBlur"/>
</filter>
</defs>
</svg>
